<?xml version='1.0' encoding='utf-8'?>
<svg xmlns="http://www.w3.org/2000/svg" version="1.1" viewBox="0.00 0.00 1024.00 1024.00">
<path fill="#FFFFFF" d="   M 771.71 349.29   A 0.25 0.24 -88.6 0 0 771.38 348.94   Q 747.30 364.85 721.79 377.03   Q 694.75 389.94 673.91 396.66   C 662.66 400.29 656.66 402.43 647.31 404.22   C 636.20 406.35 625.80 397.25 627.20 385.79   Q 628.33 376.51 637.95 372.21   A 3.31 3.23 27.3 0 1 638.70 371.98   Q 641.49 371.46 646.79 369.74   Q 678.00 359.64 708.69 345.66   Q 720.42 340.32 730.91 334.96   Q 754.30 323.02 777.14 307.38   C 779.30 305.90 784.79 301.81 789.22 298.07   C 801.63 287.57 820.44 296.72 816.01 314.16   Q 813.35 324.60 805.66 342.44   Q 799.82 355.98 788.73 377.01   Q 780.70 392.23 769.43 411.72   Q 757.32 432.68 738.99 464.77   Q 722.81 493.11 713.47 511.93   Q 709.28 520.34 702.79 533.99   Q 697.22 545.69 689.62 565.12   Q 679.33 591.41 672.58 619.61   Q 668.47 636.76 666.60 653.27   Q 664.00 676.25 664.02 684.50   Q 664.09 710.41 664.63 715.44   Q 665.47 723.24 667.00 737.16   C 667.67 743.25 667.41 746.53 662.83 750.10   Q 659.47 752.72 655.55 753.56   C 645.58 755.70 627.85 756.41 620.07 748.05   Q 618.71 746.58 617.66 742.13   Q 610.38 711.47 612.48 683.74   C 614.71 654.22 621.69 626.02 632.00 598.22   Q 641.51 572.55 653.32 548.31   C 664.74 524.88 676.66 503.73 692.54 476.99   C 693.96 474.60 695.83 472.32 697.45 469.91   A 0.54 0.54 0.0 0 0 697.34 469.19   L 697.32 469.18   A 0.56 0.56 0.0 0 0 696.56 469.22   Q 692.86 472.96 691.76 473.77   Q 679.22 483.09 664.65 494.91   Q 647.48 508.84 627.92 526.17   Q 604.35 547.04 583.44 570.09   C 580.19 573.67 577.83 576.65 574.49 580.49   Q 554.98 602.96 536.89 632.13   Q 533.72 637.23 531.18 642.30   C 529.00 646.65 526.40 650.77 523.82 656.03   Q 507.79 688.62 500.57 724.27   Q 498.96 732.23 498.43 737.69   Q 497.80 744.13 496.49 746.05   C 490.30 755.05 478.35 755.46 468.73 754.74   C 462.84 754.29 455.54 752.51 452.48 747.78   C 449.76 743.58 450.16 738.05 450.82 733.01   Q 453.96 709.12 462.06 685.78   C 464.55 678.63 468.06 669.37 471.56 661.73   C 486.90 628.21 508.21 597.13 533.06 569.79   Q 560.88 539.18 595.10 511.58   Q 617.75 493.31 650.61 468.35   Q 669.88 453.71 695.92 431.68   Q 719.21 411.97 739.38 390.13   Q 752.50 375.91 762.08 362.59   Q 767.40 355.19 771.71 349.29   Z" />
<path fill="#FFFFFF" d="   M 425.80 698.91   A 0.32 0.31 50.3 0 1 425.18 698.85   Q 424.54 687.39 422.92 677.37   Q 419.98 659.18 416.59 644.40   C 413.98 633.04 411.10 623.95 407.29 612.80   Q 398.50 587.07 383.50 564.52   Q 364.66 536.18 336.99 518.01   Q 314.60 503.31 286.85 494.06   C 280.43 491.93 272.74 490.43 266.38 488.04   C 258.77 485.18 264.36 481.00 268.59 479.87   Q 298.15 472.01 314.73 465.97   Q 329.34 460.65 345.24 452.78   Q 349.00 450.92 361.66 442.88   Q 373.52 435.35 382.43 424.20   Q 389.76 415.01 390.89 403.75   Q 391.53 397.39 388.56 389.86   C 384.77 380.28 372.45 372.16 363.19 368.30   Q 348.83 362.30 333.00 359.45   Q 311.19 355.53 288.25 354.98   Q 286.48 354.93 270.55 355.01   C 265.05 355.03 259.96 355.62 254.41 355.57   A 1.11 1.11 0.0 0 1 253.40 354.03   Q 254.44 351.58 256.90 349.90   C 266.07 343.65 276.71 341.22 289.35 338.53   Q 300.87 336.07 317.00 334.94   Q 345.65 332.92 369.62 336.36   C 398.49 340.51 432.49 352.49 439.17 385.52   C 442.45 401.79 435.37 418.95 425.73 431.74   C 415.57 445.21 400.50 456.55 385.39 464.84   C 370.11 473.22 353.20 480.47 336.43 485.26   A 0.46 0.46 0.0 0 0 336.41 486.14   Q 353.23 492.02 368.91 500.77   Q 387.33 511.06 394.94 516.88   Q 419.65 535.81 434.41 557.96   Q 449.71 580.91 457.14 606.56   Q 458.93 612.73 459.60 618.00   A 1.70 1.70 0.0 0 1 459.35 619.13   Q 446.92 639.06 438.08 662.01   C 432.49 676.51 428.79 686.44 425.80 698.91   Z" />
<ellipse fill="#dcb971" cx="0.00" cy="0.00" transform="translate(527.93,420.92) rotate(-178.8)" rx="43.42" ry="42.80" />
</svg>